:SAMPLES-PER-SECOND 24
:FULLY-SPECIFIED
:DEGREES
369
root  3.15904 38.5807 13.6073 165.382 13.0124 167.899
RightUpLeg  -9.9493 -12.7497 -4.1779
RightLeg  30.3257 4.64762 2.70176
RightFoot  -4.76027 0.739642 -13.3451
RightToes  -1.74623e-010 0 -2.59999e-017
Spine  5.82167 0.81795 1.22986
Spine1  19.092 3.97561 -8.62045
HEad  -16.167 12.9647 -10.9826
LeftShoulder1  2.07275 -3.02756 -25.5771
LeftArm  -1.00865 -12.5151 -41.2449
LeftForeArm  122.429 -74.2604 -137.51
LeftHand  0.407049 8.02033 18.4978
RightShoulder  3.1787 5.53492 29.2452
RightArm  -5.72929 4.2495 30.7961
RightForeArm  145.796 67.0255 154.113
RightHand  0.00977413 -6.55867 -4.07264
LeftUpLeg  -30.0638 -0.0257885 5.81407
LeftLeg  -0.308249 11.5878 -2.35336
LeftFoot  16.1112 3.26139 -13.7083
LeftToes  -6.27559e-011 -2.10356e-011 8.24929e-012
370
root  3.30392 38.7842 14.4044 166.387 10.0679 169.122
RightUpLeg  -9.72456 -14.9712 -3.25156
RightLeg  27.0586 4.47866 2.26887
RightFoot  -2.45741 0.954056 -12.4487
RightToes  -1.74623e-010 0 -2.59999e-017
Spine  6.44701 1.15886 -0.165704
Spine1  18.8388 3.67265 -6.80752
HEad  -14.893 11.6354 -8.96614
LeftShoulder1  2.09779 -3.12404 -25.4912
LeftArm  1.94256 -8.03385 -45.3062
LeftForeArm  123.805 -74.7274 -136.399
LeftHand  0.439926 8.36171 17.7243
RightShoulder  3.26728 5.65301 29.7705
RightArm  -5.65756 1.68839 35.1153
RightForeArm  147.837 70.7215 149.266
RightHand  -0.0210693 -8.50164 -0.911721
LeftUpLeg  -24.7084 -1.51228 5.02433
LeftLeg  -0.82705 12.7061 -0.92617
LeftFoot  9.87425 2.00109 -11.0093
LeftToes  -6.27559e-011 -2.10356e-011 8.24929e-012
371
root  3.41822 39.0647 15.0592 167.314 6.86261 170.333
RightUpLeg  -8.47189 -16.6097 -2.10017
RightLeg  21.6108 3.16722 1.16368
RightFoot  -0.992708 0.956556 -10.5938
RightToes  -1.74623e-010 0 -2.59999e-017
Spine  5.94133 1.39791 -0.386231
Spine1  19.3824 3.53026 -5.54829
HEad  -13.7936 10.0093 -7.02132
LeftShoulder1  2.11849 -3.26091 -25.1416
LeftArm  4.62253 -4.20833 -46.7466
LeftForeArm  123.237 -74.6494 -136.524
LeftHand  0.360386 8.10579 16.1218
RightShoulder  3.31876 5.72507 30.0536
RightArm  -5.31172 -0.878898 38.5974
RightForeArm  151.533 71.771 147.988
RightHand  -0.168107 -10.9639 2.11488
LeftUpLeg  -18.7271 -0.602426 4.21015
LeftLeg  3.56673 13.0886 -0.31153
LeftFoot  7.97327 1.62195 -9.8271
LeftToes  -6.27559e-011 -2.10356e-011 8.24929e-012
372
root  3.42404 39.1933 15.7438 168.623 3.26263 171.017
RightUpLeg  -9.14847 -18.5817 -1.60552
RightLeg  19.1393 1.83213 0.503505
RightFoot  -1.47691 0.721813 -8.44707
RightToes  -1.74623e-010 0 -2.59999e-017
Spine  4.80896 1.2324 -0.191217
Spine1  19.8344 3.37827 -5.2943
HEad  -13.2923 7.80056 -5.98818
LeftShoulder1  2.12286 -3.23242 -25.3486
LeftArm  7.14368 -2.51152 -44.9924
LeftForeArm  123.126 -74.2066 -137.788
LeftHand  0.337507 8.25673 14.5067
RightShoulder  3.38934 5.78871 30.5763
RightArm  -3.88235 -2.51398 39.6483
RightForeArm  152.309 71.555 148.479
RightHand  -0.385636 -12.2186 5.18856
LeftUpLeg  -12.9417 1.53368 3.02529
LeftLeg  9.13243 10.3416 0.773687
LeftFoot  5.87038 1.32942 -9.04598
LeftToes  -6.27559e-011 -2.10356e-011 8.24929e-012
373
root  3.3932 39.2804 16.5649 169.543 -1.05803 171.786
RightUpLeg  -9.38786 -19.0003 -2.19059
RightLeg  16.9756 -1.56838 0.810163
RightFoot  -2.21886 0.492178 -6.34602
RightToes  -1.74623e-010 0 -2.59999e-017
Spine  4.33797 0.768161 -0.0838763
Spine1  19.9215 2.84642 -4.81115
HEad  -12.7368 5.07931 -5.53636
LeftShoulder1  2.07356 -3.1382 -25.0392
LeftArm  8.73537 -2.10762 -43.4641
LeftForeArm  124.924 -73.9311 -138.873
LeftHand  0.339079 8.62861 13.0248
RightShoulder  3.33467 5.72118 30.2455
RightArm  -2.38291 -3.67012 39.6325
RightForeArm  151.301 70.8996 149.438
RightHand  -0.528479 -12.1042 7.65972
LeftUpLeg  -7.13329 4.5223 2.34062
LeftLeg  15.7765 6.88429 2.37464
LeftFoot  0.399713 0.60697 -5.92487
LeftToes  -6.27559e-011 -2.10356e-011 8.24929e-012
374
root  3.34412 39.278 17.4765 169.992 -5.58109 172.681
RightUpLeg  -9.25984 -16.4539 -3.16243
RightLeg  14.4702 -8.11332 1.46119
RightFoot  -2.23375 0.382899 -4.99187
RightToes  -1.74623e-010 0 -2.59999e-017
Spine  3.9327 0.40469 -0.0515971
Spine1  20.6631 2.29018 -3.90691
HEad  -12.4379 2.21252 -4.98701
LeftShoulder1  1.99804 -3.06624 -24.1926
LeftArm  9.79903 -3.39648 -43.4525
LeftForeArm  124.6 -74.2069 -138.057
LeftHand  0.355745 8.79147 12.9869
RightShoulder  3.22809 5.58649 29.5971
RightArm  -1.97367 -3.89376 38.0418
RightForeArm  150.739 69.6023 151.356
RightHand  -0.649832 -12.4518 9.16182
LeftUpLeg  -1.30598 7.76449 3.85018
LeftLeg  23.2136 7.95678 4.07347
LeftFoot  -3.79085 0.284029 -4.01981
LeftToes  -6.27559e-011 -2.10356e-011 8.24929e-012
375
root  3.25878 39.2377 18.4948 170.542 -10.696 173.113
RightUpLeg  -10.0112 -16.0051 -4.37487
RightLeg  13.3013 -12.6948 1.54045
RightFoot  -2.51388 0.315975 -4.30568
RightToes  -1.74623e-010 0 -2.59999e-017
Spine  3.14286 -0.209311 -1.02428
Spine1  21.6813 1.2669 -2.66998
HEad  -12.3159 -0.257903 -4.01644
LeftShoulder1  1.90906 -2.95081 -23.3132
LeftArm  10.7661 -5.75475 -44.353
LeftForeArm  122.725 -74.5686 -136.669
LeftHand  0.40868 8.95474 14.0524
RightShoulder  3.13265 5.45948 29.0232
RightArm  -2.70977 -3.56944 35.565
RightForeArm  150.555 68.1465 153.312
RightHand  -0.751571 -13.5594 9.24096
LeftUpLeg  4.18868 11.2644 6.53998
LeftLeg  29.3669 9.06552 5.82197
LeftFoot  -3.53506 0.259918 -3.52089
LeftToes  -6.27559e-011 -2.10356e-011 8.24929e-012
376
root  3.13475 39.1732 19.6806 171.34 -17.0845 173.45
RightUpLeg  -10.7535 -15.3135 -6.59865
RightLeg  12.1644 -18.5199 1.86431
RightFoot  -2.98072 0.231796 -3.4399
RightToes  -1.74623e-010 0 -2.59999e-017
Spine  2.48679 -1.34727 -2.64871
Spine1  22.1403 -0.574201 -0.783391
HEad  -11.6576 -2.75007 -2.72411
LeftShoulder1  1.82988 -2.85944 -22.4469
LeftArm  11.7868 -8.51838 -46.1077
LeftForeArm  121.403 -74.9613 -135.209
LeftHand  0.44296 9.09771 14.5579
RightShoulder  2.96445 5.25305 27.8936
RightArm  -4.52468 -4.35449 33.8277
RightForeArm  149.991 66.9421 154.702
RightHand  -0.675537 -14.0372 7.72732
LeftUpLeg  8.506 11.1991 8.93753
LeftLeg  33.4874 7.94949 5.97225
LeftFoot  -1.34187 0.297342 -3.31285
LeftToes  -6.27559e-011 -2.10356e-011 8.24929e-012
377
root  2.99665 39.0427 21.0569 172.212 -23.7673 173.842
RightUpLeg  -11.1738 -13.2858 -9.38074
RightLeg  9.91212 -26.1877 2.73684
RightFoot  -2.41804 0.187287 -2.60861
RightToes  -1.74623e-010 0 -2.59999e-017
Spine  2.15525 -2.43566 -3.86764
Spine1  22.21 -2.30408 0.947335
HEad  -10.8694 -5.8526 -1.1693
LeftShoulder1  1.77365 -2.81643 -21.7103
LeftArm  13.5295 -12.2631 -48.6918
LeftForeArm  118.706 -75.7076 -132.121
LeftHand  0.447779 9.03919 14.9166
RightShoulder  2.79615 5.03606 26.7453
RightArm  -7.29902 -6.2955 32.3009
RightForeArm  144.801 66.5083 154.6
RightHand  -0.401448 -13.585 4.44766
LeftUpLeg  11.7938 9.90923 10.9549
LeftLeg  35.0958 4.99828 4.12525
LeftFoot  0.252424 0.447014 -4.4182
LeftToes  -6.27559e-011 -2.10356e-011 8.24929e-012
378
root  2.88261 38.8312 22.669 173.054 -29.8204 173.907
RightUpLeg  -11.6992 -12.4826 -12.0833
RightLeg  7.62912 -32.0154 3.24513
RightFoot  -1.9567 0.160631 -2.11449
RightToes  -1.74623e-010 0 -2.59999e-017
Spine  2.47364 -3.19127 -4.65931
Spine1  22.2422 -3.38729 1.80897
HEad  -11.0584 -9.31903 0.963598
LeftShoulder1  1.69943 -2.69515 -21.0185
LeftArm  16.0492 -16.9137 -51.8718
LeftForeArm  114.425 -76.6549 -127.361
LeftHand  0.426296 8.79618 15.2102
RightShoulder  2.73723 4.95729 26.3385
RightArm  -10.7902 -8.10679 30.8244
RightForeArm  133.79 68.1842 151.188
RightHand  -0.103749 -11.71 0.701685
LeftUpLeg  14.0881 10.7778 13.1968
LeftLeg  35.5886 2.58027 2.34489
LeftFoot  2.3724 0.59037 -5.03111
LeftToes  -6.27559e-011 -2.10356e-011 8.24929e-012
379
root  2.82873 38.5036 24.5369 173.979 -35.4742 173.71
RightUpLeg  -12.078 -12.8678 -14.5959
RightLeg  4.49755 -35.7274 3.66236
RightFoot  -1.74292 0.127533 -1.66482
RightToes  -1.74623e-010 0 -2.59999e-017
Spine  3.64907 -3.72265 -5.2811
Spine1  22.0321 -4.16742 2.19243
HEad  -12.378 -12.9192 3.5467
LeftShoulder1  1.63127 -2.60146 -20.2758
LeftArm  18.8194 -21.6209 -55.5045
LeftForeArm  109.073 -77.6119 -121.199
LeftHand  0.358296 8.32743 14.9348
RightShoulder  2.71096 4.93992 26.0831
RightArm  -14.2856 -9.46396 30.4321
RightForeArm  119.607 72.3344 141.994
RightHand  0.0315603 -8.40748 -2.75216
LeftUpLeg  14.6828 12.6435 14.7814
LeftLeg  36.7228 2.37277 2.2694
LeftFoot  4.3401 0.873164 -6.38736
LeftToes  -6.27559e-011 -2.10356e-011 8.24929e-012
380
root  2.78776 38.0586 26.5269 175.07 -40.8332 173.404
RightUpLeg  -11.6933 -13.478 -17.3875
RightLeg  -1.02902 -38.138 5.81876
RightFoot  0.595086 0.176492 -1.6446
RightToes  -1.74623e-010 0 -2.59999e-017
Spine  5.04133 -3.92054 -6.1052
Spine1  21.3078 -4.93866 2.56903
HEad  -14.0091 -16.5304 5.81819
LeftShoulder1  1.63817 -2.71901 -19.8545
LeftArm  21.9389 -25.8363 -59.3369
LeftForeArm  100.594 -78.4506 -112.997
LeftHand  0.289483 7.76776 15.0446
RightShoulder  2.65493 4.89526 25.5644
RightArm  -16.8057 -9.84411 30.5133
RightForeArm  90.6464 77.5237 116.519
RightHand  -0.045248 -5.08826 -8.1645
LeftUpLeg  14.5884 13.2728 14.5626
LeftLeg  36.6127 2.35748 2.23904
LeftFoot  0.181189 1.23632 -12.1969
LeftToes  -6.27559e-011 -2.10356e-011 8.24929e-012
381
root  2.78201 37.4303 28.6137 175.911 -45.4792 172.873
RightUpLeg  -11.1572 -14.7977 -20.6066
RightLeg  -5.79503 -38.5197 8.09381
RightFoot  3.14654 0.247315 -1.77546
RightToes  -1.74623e-010 0 -2.59999e-017
Spine  6.88877 -3.56061 -7.71571
Spine1  20.811 -5.55114 3.64561
HEad  -15.8416 -19.8628 8.25423
LeftShoulder1  1.66217 -2.87215 -19.5808
LeftArm  25.5499 -29.6642 -63.6123
LeftForeArm  89.3138 -79.0195 -102.934
LeftHand  0.28785 7.74975 15.0686
RightShoulder  2.66479 4.92155 25.5836
RightArm  -18.6946 -8.69853 29.5695
RightForeArm  33.7596 77.1322 61.0567
RightHand  -0.403255 -2.04423 -13.795
LeftUpLeg  14.6213 13.3079 13.3117
LeftLeg  34.8482 -1.36638 -0.657563
LeftFoot  -11.6573 0.017284 -18.7577
LeftToes  -6.27559e-011 -2.10356e-011 8.24929e-012
382
root  2.92762 36.7066 30.6357 176.898 -49.0156 171.718
RightUpLeg  -11.432 -16.1822 -23.7235
RightLeg  -7.64557 -36.5996 8.30078
RightFoot  2.15485 0.0988822 -0.679082
RightToes  -1.74623e-010 0 -2.59999e-017
Spine  9.09266 -2.3784 -10.2882
Spine1  20.8534 -5.50999 5.31497
HEad  -18.5318 -22.9378 11.9305
LeftShoulder1  1.62239 -2.84126 -19.0424
LeftArm  29.1978 -32.8177 -67.8294
LeftForeArm  80.4895 -79.2572 -94.2577
LeftHand  0.327013 8.39927 13.5211
RightShoulder  2.83668 5.12589 26.8752
RightArm  -20.7441 -8.43723 27.9883
RightForeArm  12.0824 68.6362 29.5038
RightHand  -0.41156 -2.2229 -14.9851
LeftUpLeg  12.6871 14.6725 11.8155
LeftLeg  35.9597 -6.09832 -4.37878
LeftFoot  -22.2409 -1.52368 -17.4181
LeftToes  -6.27559e-011 -2.10356e-011 8.24929e-012
